<svg xmlns="http://www.w3.org/2000/svg" width="1200" height="630" viewBox="0 0 1200 630">
  <rect width="1200" height="630" fill="#f0eee8"/>
  <rect x="70" y="54" width="1060" height="522" fill="#202a34" stroke="#111920" stroke-width="4"/>
  <path d="M102 120h996M102 500h996" stroke="#53616d" stroke-width="2"/>
  <g font-family="sans-serif" font-weight="800">
    <rect x="104" y="78" width="78" height="26" fill="none" stroke="#72808b" stroke-width="2"/>
    <text x="143" y="97" fill="#e9eff0" font-size="15" text-anchor="middle">2025</text>
    <circle cx="204" cy="91" r="7" fill="#d29a48"/><circle cx="230" cy="91" r="7" fill="#6caa99"/>
    <text x="1094" y="98" fill="#e9eff0" font-size="20" text-anchor="end">25 · 一般事務</text>
  </g>
  <g font-family="sans-serif">
    <g>
      <rect x="104" y="154" width="378" height="310" fill="#f8f5ed"/>
      <rect x="104" y="154" width="378" height="10" fill="#b85c3f"/>
      <text x="134" y="204" fill="#64707b" font-size="20" font-weight="800">新規求人</text>
      <text x="134" y="246" fill="#202a34" font-size="34" font-weight="800">602,900</text>
      <rect x="134" y="278" width="318" height="146" fill="#53616d" stroke="#35434e" stroke-width="12"/>
      <rect x="158" y="321" width="62" height="70" fill="#efc29f" stroke="#754b34" stroke-width="3"/>
      <rect x="236" y="300" width="66" height="91" fill="#efc29f" stroke="#754b34" stroke-width="3"/>
      <rect x="320" y="326" width="61" height="65" fill="#efc29f" stroke="#754b34" stroke-width="3"/>
      <rect x="134" y="397" width="318" height="27" fill="#7a8790"/>
      <text x="152" y="417" fill="#eef2f3" font-size="15" font-weight="700">求人票</text>
    </g>
    <g>
      <rect x="718" y="154" width="378" height="310" fill="#f8f5ed"/>
      <rect x="718" y="154" width="378" height="10" fill="#526d8c"/>
      <text x="748" y="204" fill="#64707b" font-size="20" font-weight="800">新規申込</text>
      <text x="748" y="246" fill="#202a34" font-size="34" font-weight="800">879,909</text>
      <rect x="748" y="278" width="318" height="146" fill="#53616d" stroke="#35434e" stroke-width="12"/>
      <rect x="772" y="313" width="62" height="78" fill="#dce8f4" stroke="#536c89" stroke-width="3"/>
      <rect x="850" y="297" width="66" height="94" fill="#dce8f4" stroke="#536c89" stroke-width="3"/>
      <rect x="934" y="317" width="61" height="74" fill="#dce8f4" stroke="#536c89" stroke-width="3"/>
      <rect x="748" y="397" width="318" height="27" fill="#7a8790"/>
      <text x="766" y="417" fill="#eef2f3" font-size="15" font-weight="700">申込票</text>
    </g>
    <g text-anchor="middle">
      <path d="M482 310h32M686 310h32" stroke="#d29a48" stroke-width="5"/>
      <rect x="514" y="214" width="172" height="192" fill="#f4f0e7" stroke="#77828a" stroke-width="3"/>
      <text x="600" y="260" fill="#64707b" font-size="17" font-weight="800">求人 ÷ 申込</text>
      <text x="600" y="329" fill="#b85c3f" font-size="56" font-weight="800">0.69</text>
      <text x="600" y="365" fill="#202a34" font-size="21" font-weight="800">倍</text>
      <circle cx="580" cy="386" r="5" fill="#375f6b"/><circle cx="600" cy="386" r="5" fill="#375f6b"/><circle cx="620" cy="386" r="5" fill="#375f6b"/>
    </g>
  </g>
  <g font-family="sans-serif" font-weight="700">
    <text x="104" y="540" fill="#e9eff0" font-size="24">職種新規求人倍率</text>
    <text x="1096" y="540" fill="#c4ced3" font-size="17" text-anchor="end">73職種 · 48地域 · 2023—2025</text>
  </g>
</svg>
